<svg xmlns="http://www.w3.org/2000/svg" id="Camada_2" data-name="Camada 2" viewBox="0 0 2228.18 383.24"><defs><style>.cls-2{fill:#2d313d;stroke:#000;stroke-miterlimit:10}</style></defs><g id="LOGOS_ISOS" data-name="LOGOS &amp;amp; ISOS"><path d="M1115.04 215.74v162.15h-50.79v-156.3c0-55.29-26.45-82.4-72.48-82.4-50.79 0-84.12 32.43-84.12 93.57V377.9h-50.79V221.6c0-55.29-26.45-82.4-72.48-82.4-50.79 0-84.12 32.43-84.12 93.57v145.14h-50.79L650 92.86h48.01l.13 45.29c20.1-28.71 54.5-44.66 96.82-44.66s78.83 17.01 97.35 52.1c21.16-31.9 60.31-52.1 107.93-52.1 68.25 0 114.81 39.34 114.81 122.27m490.03-.02v162.15h-50.79v-156.3c0-55.29-26.45-82.4-72.48-82.4-50.79 0-84.12 32.43-84.12 93.57V377.9h-50.79V221.6c0-55.29-26.45-82.4-72.48-82.4-50.79 0-84.12 32.43-84.12 93.57v145.14h-50.79l-.2-285.05H1188l.18 45.29c20.11-28.71 54.5-44.66 96.82-44.66s78.83 17.01 97.35 52.1c21.16-31.9 60.31-52.1 107.93-52.1 68.25 0 114.81 39.34 114.81 122.27m297.56 37.05h-227.5c6.35 48.49 46.03 80.82 101.58 80.82 32.8 0 60.31-10.95 80.95-33.37l36.38 23.62c-25.39 29.2-72.35 53.55-118.91 53.55-90.47 0-150.79-58.92-150.79-141.29s59.79-140.78 140.73-140.78 138.62 57.35 138.62 142.34c0 4.17-.53 10.43-1.06 15.12m-227.5-35.98h179.88c-5.29-46.4-40.74-79.25-89.94-79.25s-84.65 32.33-89.94 79.25" class="cls-2"/><path d="M2073.28 382.24c-41.89 0-80.17-14.65-107.8-41.24-27.59-26.55-42.78-63.25-42.78-103.36s15.19-76.81 42.78-103.36c27.63-26.59 65.92-41.24 107.8-41.24s79.62 14.59 107.11 41.09c.61.59 1.2 1.19 1.78 1.8l1.68 1.72V3.3h43.33v376.78h-43.33v-42.44l-.86.87-.83.85c-.59.6-1.17 1.21-1.78 1.8-27.49 26.5-65.52 41.09-107.11 41.09Zm0-250.32c-62.19 0-107.32 44.46-107.32 105.73s45.14 105.73 107.32 105.73 106.52-45.45 106.52-105.73-45.8-105.73-106.52-105.73Z" style="fill:#2d313d"/><path d="M2226.68 3.8v375.78h-42.33v-43.17l-1.71 1.74c-.28.28-.55.57-.83.85-.57.59-1.17 1.21-1.77 1.79-27.39 26.41-65.31 40.95-106.76 40.95s-79.92-14.6-107.46-41.1c-27.49-26.45-42.63-63.03-42.63-103s15.14-76.54 42.63-103c27.54-26.5 65.7-41.1 107.46-41.1s79.37 14.54 106.76 40.95c.6.58 1.2 1.19 1.77 1.79.28.29.55.57.83.85l1.71 1.74V3.8h42.33m-153.4 340.07c61.01 0 107.02-45.67 107.02-106.23s-46.01-106.23-107.02-106.23-107.82 44.67-107.82 106.23 45.35 106.23 107.82 106.23M2227.68 2.8h-44.33v133.65c-.87-.89-1.72-1.79-2.62-2.66-27.58-26.59-65.74-41.23-107.45-41.23s-80.42 14.69-108.15 41.38c-27.69 26.64-42.93 63.48-42.93 103.72s15.25 77.07 42.93 103.72c27.73 26.68 66.14 41.38 108.15 41.38s79.87-14.64 107.45-41.23c.9-.87 1.75-1.77 2.62-2.66v41.72h44.33V2.8Zm-154.4 340.07c-61.9 0-106.82-44.25-106.82-105.23s44.92-105.23 106.82-105.23 106.02 45.24 106.02 105.23-45.58 105.23-106.02 105.23Z"/><path d="M263.57 319.1c-19.58 9.54-41.99 14.84-66.23 14.84-83.07 0-144.44-60.31-144.44-142.32S114.28 49.3 197.35 49.3c27.62 0 52.88 6.87 74.27 19.08l.64-.81c10.3-13.07 22.32-24.74 35.73-34.75-31.02-19.51-68.82-30.61-110.64-30.61C83.59 2.21 0 83.16 0 191.62s83.59 189.41 197.35 189.41c39.56 0 75.51-9.94 105.54-27.52-18.52-3.44-33.55-16.82-39.32-34.41Z" style="fill:#ff4500"/><path d="m358 79.32-.44.3c-13.68 9.26-25.21 20.86-34.26 34.46l-2.13 3.2c12.49 21.3 19.55 46.57 19.55 74.34 0 22.77-4.75 43.86-13.34 62.47 18.93 5.82 33.17 22.3 35.75 42.44 19.43-29.56 30.5-65.33 30.5-104.9 0-42.94-13.02-81.4-35.63-112.3Z" style="fill:#dc4711"/><path d="M239.65 189.91C239.65 81.45 323.25.5 437 .5s196.29 80.42 196.29 189.41S549.7 379.32 437 379.32s-197.35-80.95-197.35-189.41m340.73 0c0-82.01-61.37-142.32-143.38-142.32s-144.44 60.32-144.44 142.32S353.93 332.23 437 332.23s143.38-60.31 143.38-142.32" class="cls-2"/></g></svg>